<svg xmlns:xlink="http://www.w3.org/1999/xlink" id="wave" style="transform:rotate(0deg); transition: 0.3s" viewBox="0 0 1440 310" version="1.1" xmlns="http://www.w3.org/2000/svg"><defs><linearGradient id="sw-gradient-0" x1="0" x2="0" y1="1" y2="0"><stop stop-color="rgba(69.827, 151.561, 234.879, 1)" offset="0%"/><stop stop-color="rgba(81.961, 184, 228.049, 1)" offset="100%"/></linearGradient></defs><path style="transform:translate(0, 0px); opacity:1" fill="url(#sw-gradient-0)" d="M0,0L34.3,36.2C68.6,72,137,145,206,186C274.3,227,343,238,411,201.5C480,165,549,83,617,82.7C685.7,83,754,165,823,170.5C891.4,176,960,103,1029,77.5C1097.1,52,1166,72,1234,93C1302.9,114,1371,134,1440,144.7C1508.6,155,1577,155,1646,170.5C1714.3,186,1783,217,1851,222.2C1920,227,1989,207,2057,196.3C2125.7,186,2194,186,2263,186C2331.4,186,2400,186,2469,165.3C2537.1,145,2606,103,2674,72.3C2742.9,41,2811,21,2880,36.2C2948.6,52,3017,103,3086,139.5C3154.3,176,3223,196,3291,186C3360,176,3429,134,3497,98.2C3565.7,62,3634,31,3703,56.8C3771.4,83,3840,165,3909,201.5C3977.1,238,4046,227,4114,211.8C4182.9,196,4251,176,4320,155C4388.6,134,4457,114,4526,129.2C4594.3,145,4663,196,4731,222.2C4800,248,4869,248,4903,248L4937.1,248L4937.1,310L4902.9,310C4868.6,310,4800,310,4731,310C4662.9,310,4594,310,4526,310C4457.1,310,4389,310,4320,310C4251.4,310,4183,310,4114,310C4045.7,310,3977,310,3909,310C3840,310,3771,310,3703,310C3634.3,310,3566,310,3497,310C3428.6,310,3360,310,3291,310C3222.9,310,3154,310,3086,310C3017.1,310,2949,310,2880,310C2811.4,310,2743,310,2674,310C2605.7,310,2537,310,2469,310C2400,310,2331,310,2263,310C2194.3,310,2126,310,2057,310C1988.6,310,1920,310,1851,310C1782.9,310,1714,310,1646,310C1577.1,310,1509,310,1440,310C1371.4,310,1303,310,1234,310C1165.7,310,1097,310,1029,310C960,310,891,310,823,310C754.3,310,686,310,617,310C548.6,310,480,310,411,310C342.9,310,274,310,206,310C137.1,310,69,310,34,310L0,310Z"/><defs><linearGradient id="sw-gradient-1" x1="0" x2="0" y1="1" y2="0"><stop stop-color="rgba(97.333, 214.672, 243.986, 1)" offset="0%"/><stop stop-color="rgba(12.345, 127.496, 205.281, 1)" offset="100%"/></linearGradient></defs><path style="transform:translate(0, 50px); opacity:0.9" fill="url(#sw-gradient-1)" d="M0,93L34.3,113.7C68.6,134,137,176,206,180.8C274.3,186,343,155,411,139.5C480,124,549,124,617,134.3C685.7,145,754,165,823,175.7C891.4,186,960,186,1029,160.2C1097.1,134,1166,83,1234,87.8C1302.9,93,1371,155,1440,186C1508.6,217,1577,217,1646,201.5C1714.3,186,1783,155,1851,144.7C1920,134,1989,145,2057,170.5C2125.7,196,2194,238,2263,242.8C2331.4,248,2400,217,2469,196.3C2537.1,176,2606,165,2674,139.5C2742.9,114,2811,72,2880,62C2948.6,52,3017,72,3086,77.5C3154.3,83,3223,72,3291,72.3C3360,72,3429,83,3497,118.8C3565.7,155,3634,217,3703,217C3771.4,217,3840,155,3909,134.3C3977.1,114,4046,134,4114,134.3C4182.9,134,4251,114,4320,93C4388.6,72,4457,52,4526,77.5C4594.3,103,4663,176,4731,180.8C4800,186,4869,124,4903,93L4937.1,62L4937.1,310L4902.9,310C4868.6,310,4800,310,4731,310C4662.9,310,4594,310,4526,310C4457.1,310,4389,310,4320,310C4251.4,310,4183,310,4114,310C4045.7,310,3977,310,3909,310C3840,310,3771,310,3703,310C3634.3,310,3566,310,3497,310C3428.6,310,3360,310,3291,310C3222.9,310,3154,310,3086,310C3017.1,310,2949,310,2880,310C2811.4,310,2743,310,2674,310C2605.7,310,2537,310,2469,310C2400,310,2331,310,2263,310C2194.3,310,2126,310,2057,310C1988.6,310,1920,310,1851,310C1782.9,310,1714,310,1646,310C1577.1,310,1509,310,1440,310C1371.4,310,1303,310,1234,310C1165.7,310,1097,310,1029,310C960,310,891,310,823,310C754.3,310,686,310,617,310C548.6,310,480,310,411,310C342.9,310,274,310,206,310C137.1,310,69,310,34,310L0,310Z"/><defs><linearGradient id="sw-gradient-2" x1="0" x2="0" y1="1" y2="0"><stop stop-color="rgba(67.17, 179.274, 255, 1)" offset="0%"/><stop stop-color="rgba(74.369, 163.818, 255, 1)" offset="100%"/></linearGradient></defs><path style="transform:translate(0, 100px); opacity:0.8" fill="url(#sw-gradient-2)" d="M0,31L34.3,36.2C68.6,41,137,52,206,67.2C274.3,83,343,103,411,103.3C480,103,549,83,617,67.2C685.7,52,754,41,823,77.5C891.4,114,960,196,1029,196.3C1097.1,196,1166,114,1234,98.2C1302.9,83,1371,134,1440,139.5C1508.6,145,1577,103,1646,72.3C1714.3,41,1783,21,1851,41.3C1920,62,1989,124,2057,134.3C2125.7,145,2194,103,2263,82.7C2331.4,62,2400,62,2469,51.7C2537.1,41,2606,21,2674,46.5C2742.9,72,2811,145,2880,149.8C2948.6,155,3017,93,3086,62C3154.3,31,3223,31,3291,46.5C3360,62,3429,93,3497,93C3565.7,93,3634,62,3703,62C3771.4,62,3840,93,3909,118.8C3977.1,145,4046,165,4114,144.7C4182.9,124,4251,62,4320,62C4388.6,62,4457,124,4526,160.2C4594.3,196,4663,207,4731,191.2C4800,176,4869,134,4903,113.7L4937.1,93L4937.1,310L4902.9,310C4868.6,310,4800,310,4731,310C4662.9,310,4594,310,4526,310C4457.1,310,4389,310,4320,310C4251.4,310,4183,310,4114,310C4045.7,310,3977,310,3909,310C3840,310,3771,310,3703,310C3634.3,310,3566,310,3497,310C3428.6,310,3360,310,3291,310C3222.9,310,3154,310,3086,310C3017.1,310,2949,310,2880,310C2811.4,310,2743,310,2674,310C2605.7,310,2537,310,2469,310C2400,310,2331,310,2263,310C2194.3,310,2126,310,2057,310C1988.6,310,1920,310,1851,310C1782.9,310,1714,310,1646,310C1577.1,310,1509,310,1440,310C1371.4,310,1303,310,1234,310C1165.7,310,1097,310,1029,310C960,310,891,310,823,310C754.3,310,686,310,617,310C548.6,310,480,310,411,310C342.9,310,274,310,206,310C137.1,310,69,310,34,310L0,310Z"/><defs><linearGradient id="sw-gradient-3" x1="0" x2="0" y1="1" y2="0"><stop stop-color="rgba(58.531, 209.072, 255, 1)" offset="0%"/><stop stop-color="rgba(0.936, 230.039, 255, 1)" offset="100%"/></linearGradient></defs><path style="transform:translate(0, 150px); opacity:0.7" fill="url(#sw-gradient-3)" d="M0,279L34.3,279C68.6,279,137,279,206,242.8C274.3,207,343,134,411,134.3C480,134,549,207,617,222.2C685.7,238,754,196,823,196.3C891.4,196,960,238,1029,248C1097.1,258,1166,238,1234,232.5C1302.9,227,1371,238,1440,211.8C1508.6,186,1577,124,1646,113.7C1714.3,103,1783,145,1851,180.8C1920,217,1989,248,2057,232.5C2125.7,217,2194,155,2263,139.5C2331.4,124,2400,155,2469,155C2537.1,155,2606,124,2674,98.2C2742.9,72,2811,52,2880,46.5C2948.6,41,3017,52,3086,77.5C3154.3,103,3223,145,3291,134.3C3360,124,3429,62,3497,41.3C3565.7,21,3634,41,3703,46.5C3771.4,52,3840,41,3909,72.3C3977.1,103,4046,176,4114,186C4182.9,196,4251,145,4320,103.3C4388.6,62,4457,31,4526,41.3C4594.3,52,4663,103,4731,108.5C4800,114,4869,72,4903,51.7L4937.1,31L4937.1,310L4902.9,310C4868.6,310,4800,310,4731,310C4662.9,310,4594,310,4526,310C4457.1,310,4389,310,4320,310C4251.4,310,4183,310,4114,310C4045.7,310,3977,310,3909,310C3840,310,3771,310,3703,310C3634.3,310,3566,310,3497,310C3428.6,310,3360,310,3291,310C3222.9,310,3154,310,3086,310C3017.1,310,2949,310,2880,310C2811.4,310,2743,310,2674,310C2605.7,310,2537,310,2469,310C2400,310,2331,310,2263,310C2194.3,310,2126,310,2057,310C1988.6,310,1920,310,1851,310C1782.9,310,1714,310,1646,310C1577.1,310,1509,310,1440,310C1371.4,310,1303,310,1234,310C1165.7,310,1097,310,1029,310C960,310,891,310,823,310C754.3,310,686,310,617,310C548.6,310,480,310,411,310C342.9,310,274,310,206,310C137.1,310,69,310,34,310L0,310Z"/></svg>